<?xml version="1.0" encoding="UTF-8" standalone="no"?>
<!-- Created with Inkscape (http://www.inkscape.org/) -->

<svg
   width="116.91316mm"
   height="121.12003mm"
   viewBox="0 0 116.91316 121.12003"
   version="1.1"
   id="svg5"
   inkscape:version="1.1.2 (b8e25be833, 2022-02-05)"
   sodipodi:docname="Grailed 2016 (Icon).svg"
   xmlns:inkscape="http://www.inkscape.org/namespaces/inkscape"
   xmlns:sodipodi="http://sodipodi.sourceforge.net/DTD/sodipodi-0.dtd"
   xmlns="http://www.w3.org/2000/svg"
   xmlns:svg="http://www.w3.org/2000/svg">
  <sodipodi:namedview
     id="namedview7"
     pagecolor="#ffffff"
     bordercolor="#666666"
     borderopacity="1.0"
     inkscape:pageshadow="2"
     inkscape:pageopacity="0.0"
     inkscape:pagecheckerboard="0"
     inkscape:document-units="mm"
     showgrid="false"
     inkscape:zoom="0.64052329"
     inkscape:cx="586.23942"
     inkscape:cy="320.05081"
     inkscape:window-width="1920"
     inkscape:window-height="1017"
     inkscape:window-x="-8"
     inkscape:window-y="-8"
     inkscape:window-maximized="1"
     inkscape:current-layer="layer1" />
  <defs
     id="defs2" />
  <g
     inkscape:label="Layer 1"
     inkscape:groupmode="layer"
     id="layer1"
     transform="translate(49.865161,-63.743761)">
    <g
       style="fill:none"
       id="g833"
       transform="matrix(7.5122511,0,0,7.5122511,-49.865161,63.743761)">
      <path
         d="m 8.56,16.123 c 2.637,0 5.118,-0.807 7.003,-2.275 V 7.09 H 8.346 v 2.46 h 4.162 v 2.797 l -0.063,0.041 c -1.116,0.728 -2.462,1.114 -3.885,1.114 -3.05,0 -5.438,-2.391 -5.438,-5.441 0,-2.912 2.44,-5.282 5.438,-5.282 1.736,0 3.313,0.524 4.453,1.474 l 1.91,-2.078 C 13.275,0.752 11.078,0 8.56,0 3.84,0 0,3.616 0,8.06 c 0,4.447 3.84,8.063 8.56,8.063 z"
         id="path824"
         style="fill:#000000;fill-opacity:1" />
    </g>
  </g>
</svg>
